<svg xmlns="http://www.w3.org/2000/svg" version="1.1" xmlns:xlink="http://www.w3.org/1999/xlink" width="512" height="512" x="0" y="0" viewBox="0 0 512 512" style="enable-background:new 0 0 512 512" xml:space="preserve" class=""><g><path d="M155.217 314.173 256 139.621l18.717.321 30.593 1.179 102.195 35.376 76.571-36.876C441.7 56.74 355.477 0 256 0 165.638 0 86.216 46.821 40.657 117.523v.172l7.746 131.034 106.814 65.444z" style="" fill="#db4437" data-original="#db4437"></path><path d="M155.217 314.173 40.657 117.695l-.053-.091C14.911 157.509 0 205.012 0 256c0 137.319 108.12 249.374 243.873 255.707l91.484-60.672 21.407-136.828-201.547-.034z" style="" fill="#0f9d58" data-original="#0f9d58"></path><path d="M484.076 139.621H256l100.783 174.552-.019.034-112.891 197.5.089.003c3.991.185 8.002.29 12.039.29 141.385 0 256-114.615 256-256-.001-41.908-10.073-81.463-27.925-116.379z" style="" fill="#ffcd40" data-original="#ffcd40"></path><circle cx="256" cy="256" r="116.379" style="" fill="#f1f1f1" data-original="#f1f1f1"></circle><circle cx="256" cy="256" r="93.103" style="" fill="#4285f4" data-original="#4285f4"></circle></g></svg>