<svg xmlns="http://www.w3.org/2000/svg" version="1.1" xmlns:xlink="http://www.w3.org/1999/xlink" width="512" height="512" x="0" y="0" viewBox="0 0 32 32" style="enable-background:new 0 0 512 512" xml:space="preserve" class=""><g><path d="M28 24v-4a1 1 0 0 0-2 0v4a1 1 0 0 1-1 1H7a1 1 0 0 1-1-1v-4a1 1 0 0 0-2 0v4a3 3 0 0 0 3 3h18a3 3 0 0 0 3-3zm-6.38-5.22-5 4a1 1 0 0 1-1.24 0l-5-4a1 1 0 0 1 1.24-1.56l3.38 2.7V6a1 1 0 0 1 2 0v13.92l3.38-2.7a1 1 0 1 1 1.24 1.56z" data-name="Download" fill="#ffffff" opacity="1" data-original="#000000"></path></g></svg>