<svg xmlns="http://www.w3.org/2000/svg" version="1.1" xmlns:xlink="http://www.w3.org/1999/xlink" width="512" height="512" x="0" y="0" viewBox="0 0 682.667 682.667" style="enable-background:new 0 0 512 512" xml:space="preserve" class=""><g><defs><clipPath id="b" clipPathUnits="userSpaceOnUse"><path d="M0 512h512V0H0Z" fill="#ffffff" opacity="1" data-original="#000000" class=""></path></clipPath></defs><mask id="a"><rect width="100%" height="100%" fill="#ffffff" opacity="1" data-original="#ffffff" class=""></rect></mask><g mask="url(#a)"><g clip-path="url(#b)" transform="matrix(1.33333 0 0 -1.33333 0 682.667)"><path d="M0 0h-377.347c-9.655 0-17.482 7.298-17.482 16.3v335.133c0 8.603 7.48 15.578 16.708 15.578h121.3c5.586 0 10.802-2.603 13.902-6.937l33.416-46.735c2.827-3.954 7.586-6.328 12.683-6.328h186.436c9.228 0 16.708-6.975 16.708-15.578v-83.86" style="stroke-width:30;stroke-linecap:round;stroke-linejoin:miter;stroke-miterlimit:10;stroke-dasharray:none;stroke-opacity:1" transform="translate(409.819 72.495)" fill="none" stroke="#ffffff" stroke-width="30" stroke-linecap="round" stroke-linejoin="miter" stroke-miterlimit="10" stroke-dasharray="none" stroke-opacity="" data-original="#000000" opacity="1" class=""></path><path d="m0 0 84.56 169.832c8.532 17.136-4.889 36.741-25.152 36.741h-339.542c-11.033 0-21.016-6.098-25.422-15.528l-86.841-185.84" style="stroke-width:30;stroke-linecap:butt;stroke-linejoin:miter;stroke-miterlimit:10;stroke-dasharray:none;stroke-opacity:1" transform="translate(409.819 72.495)" fill="none" stroke="#ffffff" stroke-width="30" stroke-linecap="butt" stroke-linejoin="miter" stroke-miterlimit="10" stroke-dasharray="none" stroke-opacity="" data-original="#000000" opacity="1" class=""></path></g></g></g></svg>