<svg xmlns="http://www.w3.org/2000/svg" version="1.1" xmlns:xlink="http://www.w3.org/1999/xlink" width="512" height="512" x="0" y="0" viewBox="0 0 469.333 469.333" style="enable-background:new 0 0 512 512" xml:space="preserve" class=""><g><path d="M160 0H10.667A10.66 10.66 0 0 0 0 10.667V160a10.66 10.66 0 0 0 10.667 10.667H32A10.66 10.66 0 0 0 42.667 160V42.667H160A10.66 10.66 0 0 0 170.667 32V10.667A10.66 10.66 0 0 0 160 0zM458.667 0H309.333a10.66 10.66 0 0 0-10.667 10.667V32a10.66 10.66 0 0 0 10.667 10.667h117.333V160a10.66 10.66 0 0 0 10.667 10.667h21.333A10.66 10.66 0 0 0 469.333 160V10.667A10.66 10.66 0 0 0 458.667 0zM458.667 298.667h-21.333a10.66 10.66 0 0 0-10.667 10.667v117.333H309.333a10.66 10.66 0 0 0-10.667 10.667v21.333a10.66 10.66 0 0 0 10.667 10.667h149.333a10.66 10.66 0 0 0 10.667-10.667V309.333a10.66 10.66 0 0 0-10.666-10.666zM160 426.667H42.667V309.333A10.66 10.66 0 0 0 32 298.666H10.667A10.662 10.662 0 0 0 0 309.333v149.333a10.66 10.66 0 0 0 10.667 10.667H160a10.66 10.66 0 0 0 10.667-10.667v-21.333A10.66 10.66 0 0 0 160 426.667z" fill="#ffffff" opacity="1" data-original="#000000" class=""></path></g></svg>