<svg xmlns="http://www.w3.org/2000/svg" version="1.1" xmlns:xlink="http://www.w3.org/1999/xlink" width="512" height="512" x="0" y="0" viewBox="0 0 24 24" style="enable-background:new 0 0 512 512" xml:space="preserve" class=""><g><path d="M19.602 12.635a.99.99 0 0 0-1.134.844 6.402 6.402 0 0 1-1.83 3.618 6.506 6.506 0 0 1-9.192 0 6.507 6.507 0 0 1 0-9.192 6.414 6.414 0 0 1 3.503-1.8 6.187 6.187 0 0 1 1.848-.055 6.414 6.414 0 0 1 2.466.828l-1.302.223a1 1 0 1 0 .338 1.971l3.49-.596a1.002 1.002 0 0 0 .816-1.155l-.597-3.49a1 1 0 1 0-1.97.338l.156.919a8.423 8.423 0 0 0-3.17-1.025 8.102 8.102 0 0 0-2.428.074 8.379 8.379 0 0 0-4.564 2.354c-3.313 3.314-3.313 8.705 0 12.02a8.471 8.471 0 0 0 6.01 2.485 8.471 8.471 0 0 0 6.01-2.485 8.39 8.39 0 0 0 2.394-4.741 1 1 0 0 0-.843-1.135z" fill="#007bff" opacity="1" data-original="#000000"></path></g></svg>